<?xml version="1.0" encoding="UTF-8" standalone="no"?>
<!-- Created with Inkscape (http://www.inkscape.org/) -->

<svg
   width="512"
   height="512"
   viewBox="0 0 512 512"
   version="1.1"
   id="svg1"
   xmlns="http://www.w3.org/2000/svg"
   xmlns:svg="http://www.w3.org/2000/svg">
  <defs
     id="defs1" />
  <g
     id="layer1">
    <ellipse
       style="fill:#ffffff;stroke:none;stroke-width:6.75507;stroke-linejoin:round"
       id="path3"
       cx="256"
       cy="254.2988"
       rx="256"
       ry="252.16943" />
    <path
       id="path1"
       style="fill:#ffffff;stroke:#000000;stroke-width:8;stroke-linejoin:round;stroke-dasharray:none"
       d="M 256 31.615234 A 224.384 224.38422 0 0 0 31.615234 256 A 224.384 224.38422 0 0 0 219.25977 476.98242 A 38.190002 38.190002 0 0 1 256.8418 445.19336 A 38.190002 38.190002 0 0 1 294.35938 476.66016 A 224.384 224.38422 0 0 0 480.38477 256 A 224.384 224.38422 0 0 0 256 31.615234 z " />
    <circle
       style="fill:#000000;stroke:#000000;stroke-width:3;stroke-linejoin:round;stroke-dasharray:none"
       id="path2"
       cx="256"
       cy="89.578049"
       r="21.516294" />
    <circle
       style="fill:#000000;stroke:#000000;stroke-width:3;stroke-linejoin:round;stroke-dasharray:none"
       id="path2-3"
       cx="376.82483"
       cy="142.59325"
       r="21.516294" />
    <circle
       style="fill:#000000;stroke:#000000;stroke-width:3;stroke-linejoin:round;stroke-dasharray:none"
       id="path2-3-1"
       cx="133.48691"
       cy="142.59325"
       r="21.516294" />
    <circle
       style="fill:#000000;stroke:#000000;stroke-width:3;stroke-linejoin:round;stroke-dasharray:none"
       id="path2-3-1-3"
       cx="88.085541"
       cy="256"
       r="21.516294" />
    <circle
       style="fill:#000000;stroke:#000000;stroke-width:3;stroke-linejoin:round;stroke-dasharray:none"
       id="path2-3-1-3-6"
       cx="425.59668"
       cy="256"
       r="21.516294" />
    <path
       style="font-size:149.333px;line-height:1.25;font-family:Audiowide;-inkscape-font-specification:'Audiowide, Normal'"
       d="m 228.69534,291.24609 h -59.93736 v -19.10412 h 59.93736 z m 8.45831,-42.8749 h -75.97899 v 85.60397 h -18.95829 v -95.0102 q 0,-1.96875 0.72916,-3.71874 0.72917,-1.75 1.96875,-3.0625 1.3125,-1.31249 3.06249,-2.04166 1.75,-0.72916 3.79166,-0.72916 h 85.38522 z m 134.3122,41.85407 q 0,6.41665 -1.67708,12.17705 -1.60417,5.68749 -4.59374,10.5729 -2.98958,4.8854 -7.0729,8.74998 -4.08333,3.86457 -8.96873,6.6354 -4.81249,2.69791 -10.28123,4.15624 -5.46874,1.45833 -11.15622,1.45833 h -34.19784 q -5.76041,0 -11.22914,-1.45833 -5.46874,-1.45833 -10.35415,-4.15624 -4.81249,-2.77083 -8.89581,-6.6354 -4.08332,-3.86458 -7.0729,-8.74998 -2.91666,-4.88541 -4.59374,-10.5729 -1.60416,-5.7604 -1.60416,-12.17705 V 273.1628 q 0,-9.62498 3.57291,-17.6458 3.64582,-8.02081 9.69789,-13.78121 6.05207,-5.83332 13.92705,-9.04165 7.9479,-3.28124 16.55205,-3.28124 h 34.19784 q 5.68748,0 11.15622,1.45833 5.46874,1.45833 10.28123,4.22915 4.8854,2.69791 8.96873,6.56249 4.08332,3.86457 7.0729,8.74998 2.98957,4.8854 4.59374,10.64581 1.67708,5.68749 1.67708,12.10414 z M 352.36172,273.1628 q 0,-5.61457 -2.04166,-10.20831 -2.04166,-4.59374 -5.46874,-7.87498 -3.35416,-3.28125 -7.80206,-5.03124 -4.44791,-1.75 -9.33331,-1.67708 h -34.19784 q -4.73957,-0.0729 -9.2604,1.67708 -4.4479,1.67708 -7.9479,4.95832 -3.42707,3.20832 -5.54165,7.87498 -2.04166,4.59374 -2.04166,10.28123 v 17.06246 q 0,5.68749 2.04166,10.28123 2.04166,4.59373 5.46874,7.87498 3.42707,3.20832 7.87498,4.95832 4.52082,1.75 9.40623,1.67708 h 34.19784 q 5.61457,0 10.13539,-1.82291 4.59374,-1.89583 7.80207,-5.17708 3.20832,-3.28124 4.95832,-7.80206 1.74999,-4.59374 1.74999,-9.98956 z m -8.23956,-13.85414 q 1.09375,1.60417 1.45833,3.49999 0.36458,1.82292 0,3.64583 -0.36458,1.75 -1.45833,3.35416 -1.02083,1.53124 -2.69791,2.62499 l -51.18738,34.19784 q -1.23959,0.94792 -2.55208,1.3125 -1.3125,0.36458 -2.69791,0.36458 -2.33333,0 -4.44791,-1.09375 -2.11458,-1.09374 -3.42707,-3.13541 -1.09375,-1.60416 -1.45833,-3.42707 -0.36459,-1.89583 -0.0729,-3.64583 0.36458,-1.82291 1.38541,-3.35416 1.02083,-1.60416 2.69791,-2.69791 l 51.33322,-34.19784 q 1.60416,-1.09374 3.42707,-1.45833 1.89583,-0.36458 3.64583,0 1.82291,0.36459 3.35416,1.38542 1.60416,1.02083 2.69791,2.62499 z"
       id="text2"
       aria-label="F0" />
  </g>
</svg>
